<mxfile host="app.diagrams.net" modified="2023-07-05T11:04:48.017Z" agent="Mozilla/5.0 (Windows NT 10.0; Win64; x64) AppleWebKit/537.36 (KHTML, like Gecko) Chrome/114.0.0.0 Safari/537.36" etag="cpYXal5Y0at37vN5A2P0" version="21.5.2" type="github" pages="2">
  <diagram name="第 1 页" id="LpcylKUexM6prcseToAj">
    <mxGraphModel grid="1" page="1" gridSize="10" guides="1" tooltips="1" connect="1" arrows="1" fold="1" pageScale="1" pageWidth="1169" pageHeight="827" math="0" shadow="0">
      <root>
        <mxCell id="0" />
        <mxCell id="1" parent="0" />
        <mxCell id="ImF7eDTHu0jVzkc-1LmT-47" value="" style="rounded=0;whiteSpace=wrap;html=1;dashed=1;" vertex="1" parent="1">
          <mxGeometry x="170" y="270" width="570" height="210" as="geometry" />
        </mxCell>
        <mxCell id="ImF7eDTHu0jVzkc-1LmT-39" value="" style="rounded=0;whiteSpace=wrap;html=1;dashed=1;" vertex="1" parent="1">
          <mxGeometry x="500" y="564" width="260" height="120" as="geometry" />
        </mxCell>
        <mxCell id="ImF7eDTHu0jVzkc-1LmT-18" value="" style="edgeStyle=orthogonalEdgeStyle;rounded=0;orthogonalLoop=1;jettySize=auto;html=1;strokeWidth=3;" edge="1" parent="1" source="ImF7eDTHu0jVzkc-1LmT-1" target="ImF7eDTHu0jVzkc-1LmT-2">
          <mxGeometry relative="1" as="geometry" />
        </mxCell>
        <mxCell id="ImF7eDTHu0jVzkc-1LmT-1" value="CMD_fetch" style="rounded=0;whiteSpace=wrap;html=1;" vertex="1" parent="1">
          <mxGeometry x="300" y="280" width="70" height="40" as="geometry" />
        </mxCell>
        <mxCell id="ImF7eDTHu0jVzkc-1LmT-20" value="" style="edgeStyle=orthogonalEdgeStyle;rounded=0;orthogonalLoop=1;jettySize=auto;html=1;entryX=0;entryY=0.5;entryDx=0;entryDy=0;exitX=0.997;exitY=0.332;exitDx=0;exitDy=0;exitPerimeter=0;fillColor=#d80073;strokeColor=#A50040;" edge="1" parent="1" source="ImF7eDTHu0jVzkc-1LmT-2" target="ImF7eDTHu0jVzkc-1LmT-3">
          <mxGeometry relative="1" as="geometry" />
        </mxCell>
        <mxCell id="ImF7eDTHu0jVzkc-1LmT-24" style="edgeStyle=orthogonalEdgeStyle;rounded=0;orthogonalLoop=1;jettySize=auto;html=1;entryX=0;entryY=0.5;entryDx=0;entryDy=0;exitX=1;exitY=0.75;exitDx=0;exitDy=0;strokeWidth=3;" edge="1" parent="1" source="ImF7eDTHu0jVzkc-1LmT-2" target="ImF7eDTHu0jVzkc-1LmT-8">
          <mxGeometry relative="1" as="geometry">
            <Array as="points">
              <mxPoint x="520" y="325" />
              <mxPoint x="520" y="365" />
            </Array>
          </mxGeometry>
        </mxCell>
        <mxCell id="ImF7eDTHu0jVzkc-1LmT-2" value="CMD_buffer" style="rounded=0;whiteSpace=wrap;html=1;" vertex="1" parent="1">
          <mxGeometry x="410" y="280" width="100" height="60" as="geometry" />
        </mxCell>
        <mxCell id="ImF7eDTHu0jVzkc-1LmT-21" value="" style="edgeStyle=orthogonalEdgeStyle;rounded=0;orthogonalLoop=1;jettySize=auto;html=1;fillColor=#d80073;strokeColor=#A50040;" edge="1" parent="1" source="ImF7eDTHu0jVzkc-1LmT-3" target="ImF7eDTHu0jVzkc-1LmT-4">
          <mxGeometry relative="1" as="geometry" />
        </mxCell>
        <mxCell id="ImF7eDTHu0jVzkc-1LmT-3" value="Scan_cmd&lt;br&gt;_head" style="rounded=0;whiteSpace=wrap;html=1;" vertex="1" parent="1">
          <mxGeometry x="540" y="280" width="70" height="40" as="geometry" />
        </mxCell>
        <mxCell id="ImF7eDTHu0jVzkc-1LmT-23" value="" style="edgeStyle=orthogonalEdgeStyle;rounded=0;orthogonalLoop=1;jettySize=auto;html=1;entryX=0.649;entryY=0.005;entryDx=0;entryDy=0;entryPerimeter=0;" edge="1" parent="1" source="ImF7eDTHu0jVzkc-1LmT-4" target="ImF7eDTHu0jVzkc-1LmT-8">
          <mxGeometry relative="1" as="geometry" />
        </mxCell>
        <mxCell id="ImF7eDTHu0jVzkc-1LmT-4" value="Scoreboard" style="rounded=0;whiteSpace=wrap;html=1;" vertex="1" parent="1">
          <mxGeometry x="646" y="280" width="70" height="40" as="geometry" />
        </mxCell>
        <mxCell id="ImF7eDTHu0jVzkc-1LmT-31" value="" style="edgeStyle=orthogonalEdgeStyle;rounded=0;orthogonalLoop=1;jettySize=auto;html=1;strokeWidth=3;fillColor=#1ba1e2;strokeColor=#006EAF;" edge="1" parent="1" source="ImF7eDTHu0jVzkc-1LmT-5" target="ImF7eDTHu0jVzkc-1LmT-11">
          <mxGeometry relative="1" as="geometry" />
        </mxCell>
        <mxCell id="ImF7eDTHu0jVzkc-1LmT-5" value="Write_&lt;br&gt;master" style="rounded=0;whiteSpace=wrap;html=1;" vertex="1" parent="1">
          <mxGeometry x="300" y="390" width="70" height="40" as="geometry" />
        </mxCell>
        <mxCell id="ImF7eDTHu0jVzkc-1LmT-33" value="" style="edgeStyle=orthogonalEdgeStyle;rounded=0;orthogonalLoop=1;jettySize=auto;html=1;" edge="1" parent="1" source="ImF7eDTHu0jVzkc-1LmT-6" target="ImF7eDTHu0jVzkc-1LmT-7">
          <mxGeometry relative="1" as="geometry" />
        </mxCell>
        <mxCell id="ImF7eDTHu0jVzkc-1LmT-6" value="Register" style="rounded=0;whiteSpace=wrap;html=1;" vertex="1" parent="1">
          <mxGeometry x="640" y="414" width="70" height="40" as="geometry" />
        </mxCell>
        <mxCell id="ImF7eDTHu0jVzkc-1LmT-7" value="Scp_ctrl" style="rounded=0;whiteSpace=wrap;html=1;" vertex="1" parent="1">
          <mxGeometry x="540" y="414" width="70" height="40" as="geometry" />
        </mxCell>
        <mxCell id="ImF7eDTHu0jVzkc-1LmT-28" value="" style="edgeStyle=orthogonalEdgeStyle;rounded=0;orthogonalLoop=1;jettySize=auto;html=1;strokeWidth=3;fillColor=#008a00;strokeColor=#005700;" edge="1" parent="1" source="ImF7eDTHu0jVzkc-1LmT-8" target="ImF7eDTHu0jVzkc-1LmT-14">
          <mxGeometry relative="1" as="geometry" />
        </mxCell>
        <mxCell id="ImF7eDTHu0jVzkc-1LmT-30" style="edgeStyle=orthogonalEdgeStyle;rounded=0;orthogonalLoop=1;jettySize=auto;html=1;entryX=1;entryY=0.5;entryDx=0;entryDy=0;exitX=-0.002;exitY=0.797;exitDx=0;exitDy=0;exitPerimeter=0;strokeWidth=3;fillColor=#1ba1e2;strokeColor=#006EAF;" edge="1" parent="1" source="ImF7eDTHu0jVzkc-1LmT-8" target="ImF7eDTHu0jVzkc-1LmT-5">
          <mxGeometry relative="1" as="geometry">
            <Array as="points">
              <mxPoint x="520" y="380" />
              <mxPoint x="520" y="410" />
            </Array>
          </mxGeometry>
        </mxCell>
        <mxCell id="ImF7eDTHu0jVzkc-1LmT-8" value="Dispatch" style="rounded=0;whiteSpace=wrap;html=1;" vertex="1" parent="1">
          <mxGeometry x="616" y="340" width="100" height="50" as="geometry" />
        </mxCell>
        <mxCell id="ImF7eDTHu0jVzkc-1LmT-17" value="" style="edgeStyle=orthogonalEdgeStyle;rounded=0;orthogonalLoop=1;jettySize=auto;html=1;strokeWidth=3;" edge="1" parent="1" source="ImF7eDTHu0jVzkc-1LmT-9" target="ImF7eDTHu0jVzkc-1LmT-1">
          <mxGeometry relative="1" as="geometry" />
        </mxCell>
        <mxCell id="ImF7eDTHu0jVzkc-1LmT-9" value="Axi_master&lt;br&gt;_rd" style="rounded=0;whiteSpace=wrap;html=1;" vertex="1" parent="1">
          <mxGeometry x="200" y="280" width="70" height="40" as="geometry" />
        </mxCell>
        <mxCell id="ImF7eDTHu0jVzkc-1LmT-27" value="" style="edgeStyle=orthogonalEdgeStyle;rounded=0;orthogonalLoop=1;jettySize=auto;html=1;entryX=0.975;entryY=0.724;entryDx=0;entryDy=0;entryPerimeter=0;strokeWidth=3;fillColor=#1ba1e2;strokeColor=#006EAF;" edge="1" parent="1" source="ImF7eDTHu0jVzkc-1LmT-11" target="ImF7eDTHu0jVzkc-1LmT-13">
          <mxGeometry relative="1" as="geometry" />
        </mxCell>
        <mxCell id="ImF7eDTHu0jVzkc-1LmT-11" value="Axi_master&lt;br&gt;_wr" style="rounded=0;whiteSpace=wrap;html=1;" vertex="1" parent="1">
          <mxGeometry x="200" y="390" width="70" height="40" as="geometry" />
        </mxCell>
        <mxCell id="ImF7eDTHu0jVzkc-1LmT-48" value="" style="edgeStyle=orthogonalEdgeStyle;rounded=0;orthogonalLoop=1;jettySize=auto;html=1;" edge="1" parent="1" source="ImF7eDTHu0jVzkc-1LmT-12">
          <mxGeometry relative="1" as="geometry">
            <mxPoint x="110" y="300" as="targetPoint" />
          </mxGeometry>
        </mxCell>
        <mxCell id="ImF7eDTHu0jVzkc-1LmT-12" value="External&lt;br&gt;CMD Mem&lt;br&gt;&lt;font style=&quot;font-size: 11px;&quot;&gt;(DDR/SLC)&lt;/font&gt;" style="rounded=0;whiteSpace=wrap;html=1;" vertex="1" parent="1">
          <mxGeometry x="20" y="280" width="70" height="40" as="geometry" />
        </mxCell>
        <mxCell id="ImF7eDTHu0jVzkc-1LmT-25" style="edgeStyle=orthogonalEdgeStyle;rounded=0;orthogonalLoop=1;jettySize=auto;html=1;entryX=0;entryY=0.5;entryDx=0;entryDy=0;exitX=1;exitY=0.113;exitDx=0;exitDy=0;exitPerimeter=0;strokeWidth=3;" edge="1" parent="1" source="ImF7eDTHu0jVzkc-1LmT-13" target="ImF7eDTHu0jVzkc-1LmT-9">
          <mxGeometry relative="1" as="geometry" />
        </mxCell>
        <mxCell id="ImF7eDTHu0jVzkc-1LmT-13" value="AI&lt;br&gt;Bus" style="rounded=0;whiteSpace=wrap;html=1;" vertex="1" parent="1">
          <mxGeometry x="110" y="280" width="40" height="180" as="geometry" />
        </mxCell>
        <mxCell id="ImF7eDTHu0jVzkc-1LmT-14" value="CMD&lt;br&gt;Bus" style="rounded=0;whiteSpace=wrap;html=1;" vertex="1" parent="1">
          <mxGeometry x="760" y="280" width="30" height="110" as="geometry" />
        </mxCell>
        <mxCell id="ImF7eDTHu0jVzkc-1LmT-32" value="" style="edgeStyle=orthogonalEdgeStyle;rounded=0;orthogonalLoop=1;jettySize=auto;html=1;" edge="1" parent="1" source="ImF7eDTHu0jVzkc-1LmT-15" target="ImF7eDTHu0jVzkc-1LmT-6">
          <mxGeometry relative="1" as="geometry" />
        </mxCell>
        <mxCell id="ImF7eDTHu0jVzkc-1LmT-15" value="APB" style="rounded=0;whiteSpace=wrap;html=1;" vertex="1" parent="1">
          <mxGeometry x="760" y="414" width="30" height="40" as="geometry" />
        </mxCell>
        <mxCell id="ImF7eDTHu0jVzkc-1LmT-34" value="Err_ctrl" style="rounded=0;whiteSpace=wrap;html=1;" vertex="1" parent="1">
          <mxGeometry x="590" y="574" width="70" height="40" as="geometry" />
        </mxCell>
        <mxCell id="ImF7eDTHu0jVzkc-1LmT-35" value="Msg_ctrl" style="rounded=0;whiteSpace=wrap;html=1;" vertex="1" parent="1">
          <mxGeometry x="671" y="574" width="70" height="40" as="geometry" />
        </mxCell>
        <mxCell id="ImF7eDTHu0jVzkc-1LmT-36" value="Perf_cnt" style="rounded=0;whiteSpace=wrap;html=1;" vertex="1" parent="1">
          <mxGeometry x="510" y="634" width="70" height="40" as="geometry" />
        </mxCell>
        <mxCell id="ImF7eDTHu0jVzkc-1LmT-37" value="Process_ctrl" style="rounded=0;whiteSpace=wrap;html=1;" vertex="1" parent="1">
          <mxGeometry x="510" y="574" width="70" height="40" as="geometry" />
        </mxCell>
        <mxCell id="ImF7eDTHu0jVzkc-1LmT-38" value="Debug" style="rounded=0;whiteSpace=wrap;html=1;" vertex="1" parent="1">
          <mxGeometry x="590" y="634" width="70" height="40" as="geometry" />
        </mxCell>
        <mxCell id="ImF7eDTHu0jVzkc-1LmT-42" value="" style="endArrow=none;dashed=1;html=1;rounded=0;exitX=0;exitY=0;exitDx=0;exitDy=0;entryX=0;entryY=1;entryDx=0;entryDy=0;" edge="1" parent="1" source="ImF7eDTHu0jVzkc-1LmT-39" target="ImF7eDTHu0jVzkc-1LmT-7">
          <mxGeometry width="50" height="50" relative="1" as="geometry">
            <mxPoint x="500" y="474" as="sourcePoint" />
            <mxPoint x="550" y="424" as="targetPoint" />
          </mxGeometry>
        </mxCell>
        <mxCell id="ImF7eDTHu0jVzkc-1LmT-43" value="" style="endArrow=none;dashed=1;html=1;rounded=0;exitX=1;exitY=0;exitDx=0;exitDy=0;entryX=0;entryY=1;entryDx=0;entryDy=0;" edge="1" parent="1" source="ImF7eDTHu0jVzkc-1LmT-39">
          <mxGeometry width="50" height="50" relative="1" as="geometry">
            <mxPoint x="609.52" y="564" as="sourcePoint" />
            <mxPoint x="609.52" y="454" as="targetPoint" />
          </mxGeometry>
        </mxCell>
        <mxCell id="ImF7eDTHu0jVzkc-1LmT-44" value="Misc" style="rounded=0;whiteSpace=wrap;html=1;" vertex="1" parent="1">
          <mxGeometry x="671" y="634" width="70" height="40" as="geometry" />
        </mxCell>
        <mxCell id="ImF7eDTHu0jVzkc-1LmT-49" value="MM类CMD&lt;br&gt;VS类CMD&lt;br&gt;" style="text;html=1;align=left;verticalAlign=middle;resizable=0;points=[];autosize=1;strokeColor=none;fillColor=none;" vertex="1" parent="1">
          <mxGeometry x="80" y="534" width="80" height="40" as="geometry" />
        </mxCell>
        <mxCell id="ImF7eDTHu0jVzkc-1LmT-51" value="" style="edgeStyle=orthogonalEdgeStyle;rounded=0;orthogonalLoop=1;jettySize=auto;html=1;strokeWidth=3;fillColor=#1ba1e2;strokeColor=#006EAF;" edge="1" parent="1">
          <mxGeometry relative="1" as="geometry">
            <mxPoint x="40" y="600" as="sourcePoint" />
            <mxPoint x="70" y="600" as="targetPoint" />
          </mxGeometry>
        </mxCell>
        <mxCell id="ImF7eDTHu0jVzkc-1LmT-52" value="DMA" style="rounded=0;whiteSpace=wrap;html=1;" vertex="1" parent="1">
          <mxGeometry x="20" y="360" width="70" height="40" as="geometry" />
        </mxCell>
        <mxCell id="ImF7eDTHu0jVzkc-1LmT-55" value="" style="endArrow=classic;startArrow=classic;html=1;rounded=0;exitX=0;exitY=0.556;exitDx=0;exitDy=0;exitPerimeter=0;" edge="1" parent="1" source="ImF7eDTHu0jVzkc-1LmT-13">
          <mxGeometry width="50" height="50" relative="1" as="geometry">
            <mxPoint x="40" y="430" as="sourcePoint" />
            <mxPoint x="90" y="380" as="targetPoint" />
          </mxGeometry>
        </mxCell>
        <mxCell id="ImF7eDTHu0jVzkc-1LmT-56" value="" style="edgeStyle=orthogonalEdgeStyle;rounded=0;orthogonalLoop=1;jettySize=auto;html=1;strokeWidth=3;fillColor=#008a00;strokeColor=#005700;" edge="1" parent="1">
          <mxGeometry relative="1" as="geometry">
            <mxPoint x="40" y="553.8" as="sourcePoint" />
            <mxPoint x="70" y="553.8" as="targetPoint" />
          </mxGeometry>
        </mxCell>
        <mxCell id="ImF7eDTHu0jVzkc-1LmT-57" value="&lt;span style=&quot;color: rgb(0, 0, 0); font-family: Helvetica; font-size: 12px; font-style: normal; font-variant-ligatures: normal; font-variant-caps: normal; font-weight: 400; letter-spacing: normal; orphans: 2; text-align: left; text-indent: 0px; text-transform: none; widows: 2; word-spacing: 0px; -webkit-text-stroke-width: 0px; background-color: rgb(251, 251, 251); text-decoration-thickness: initial; text-decoration-style: initial; text-decoration-color: initial; float: none; display: inline !important;&quot;&gt;DMA类CMD&lt;/span&gt;&lt;br style=&quot;border-color: var(--border-color); color: rgb(0, 0, 0); font-family: Helvetica; font-size: 12px; font-style: normal; font-variant-ligatures: normal; font-variant-caps: normal; font-weight: 400; letter-spacing: normal; orphans: 2; text-align: left; text-indent: 0px; text-transform: none; widows: 2; word-spacing: 0px; -webkit-text-stroke-width: 0px; background-color: rgb(251, 251, 251); text-decoration-thickness: initial; text-decoration-style: initial; text-decoration-color: initial;&quot;&gt;&lt;span style=&quot;color: rgb(0, 0, 0); font-family: Helvetica; font-size: 12px; font-style: normal; font-variant-ligatures: normal; font-variant-caps: normal; font-weight: 400; letter-spacing: normal; orphans: 2; text-align: left; text-indent: 0px; text-transform: none; widows: 2; word-spacing: 0px; -webkit-text-stroke-width: 0px; background-color: rgb(251, 251, 251); text-decoration-thickness: initial; text-decoration-style: initial; text-decoration-color: initial; float: none; display: inline !important;&quot;&gt;DSP类CMD&lt;/span&gt;&lt;br style=&quot;border-color: var(--border-color); color: rgb(0, 0, 0); font-family: Helvetica; font-size: 12px; font-style: normal; font-variant-ligatures: normal; font-variant-caps: normal; font-weight: 400; letter-spacing: normal; orphans: 2; text-align: left; text-indent: 0px; text-transform: none; widows: 2; word-spacing: 0px; -webkit-text-stroke-width: 0px; background-color: rgb(251, 251, 251); text-decoration-thickness: initial; text-decoration-style: initial; text-decoration-color: initial;&quot;&gt;&lt;span style=&quot;color: rgb(0, 0, 0); font-family: Helvetica; font-size: 12px; font-style: normal; font-variant-ligatures: normal; font-variant-caps: normal; font-weight: 400; letter-spacing: normal; orphans: 2; text-align: left; text-indent: 0px; text-transform: none; widows: 2; word-spacing: 0px; -webkit-text-stroke-width: 0px; background-color: rgb(251, 251, 251); text-decoration-thickness: initial; text-decoration-style: initial; text-decoration-color: initial; float: none; display: inline !important;&quot;&gt;SCP Message类CMD&lt;/span&gt;" style="text;whiteSpace=wrap;html=1;" vertex="1" parent="1">
          <mxGeometry x="80" y="584" width="150" height="50" as="geometry" />
        </mxCell>
        <mxCell id="ImF7eDTHu0jVzkc-1LmT-58" value="&lt;span style=&quot;color: rgb(0, 0, 0); font-family: Helvetica; font-size: 12px; font-style: normal; font-variant-ligatures: normal; font-variant-caps: normal; font-weight: 400; letter-spacing: normal; orphans: 2; text-align: left; text-indent: 0px; text-transform: none; widows: 2; word-spacing: 0px; -webkit-text-stroke-width: 0px; background-color: rgb(251, 251, 251); text-decoration-thickness: initial; text-decoration-style: initial; text-decoration-color: initial; float: none; display: inline !important;&quot;&gt;SCP Sync类CMD在Dispatch中执行&lt;/span&gt;" style="text;whiteSpace=wrap;html=1;" vertex="1" parent="1">
          <mxGeometry x="80" y="650" width="110" height="40" as="geometry" />
        </mxCell>
        <mxCell id="ImF7eDTHu0jVzkc-1LmT-59" value="Mailbox" style="rounded=0;whiteSpace=wrap;html=1;" vertex="1" parent="1">
          <mxGeometry x="20" y="420" width="70" height="40" as="geometry" />
        </mxCell>
        <mxCell id="ImF7eDTHu0jVzkc-1LmT-60" value="" style="endArrow=classic;startArrow=classic;html=1;rounded=0;exitX=0;exitY=0.556;exitDx=0;exitDy=0;exitPerimeter=0;" edge="1" parent="1">
          <mxGeometry width="50" height="50" relative="1" as="geometry">
            <mxPoint x="110" y="439.76" as="sourcePoint" />
            <mxPoint x="90" y="439.76" as="targetPoint" />
          </mxGeometry>
        </mxCell>
        <mxCell id="ImF7eDTHu0jVzkc-1LmT-61" value="..." style="text;html=1;align=center;verticalAlign=middle;resizable=0;points=[];autosize=1;strokeColor=none;fillColor=none;" vertex="1" parent="1">
          <mxGeometry x="40" y="468" width="30" height="30" as="geometry" />
        </mxCell>
      </root>
    </mxGraphModel>
  </diagram>
  <diagram id="dINUJKCtBANVlHcjFVYU" name="第 2 页">
    <mxGraphModel dx="2074" dy="1124" grid="1" gridSize="10" guides="1" tooltips="1" connect="1" arrows="1" fold="1" page="1" pageScale="1" pageWidth="1169" pageHeight="827" math="0" shadow="0">
      <root>
        <mxCell id="0" />
        <mxCell id="1" parent="0" />
        <mxCell id="x0C4VEqtYfVwK2n4nYKt-105" value="" style="edgeStyle=orthogonalEdgeStyle;rounded=0;orthogonalLoop=1;jettySize=auto;html=1;entryX=0;entryY=0.5;entryDx=0;entryDy=0;" edge="1" parent="1" source="x0C4VEqtYfVwK2n4nYKt-106" target="x0C4VEqtYfVwK2n4nYKt-128">
          <mxGeometry relative="1" as="geometry" />
        </mxCell>
        <mxCell id="x0C4VEqtYfVwK2n4nYKt-106" value="" style="rounded=0;whiteSpace=wrap;html=1;" vertex="1" parent="1">
          <mxGeometry x="230" y="78" width="120" height="20" as="geometry" />
        </mxCell>
        <mxCell id="x0C4VEqtYfVwK2n4nYKt-107" value="" style="rounded=0;whiteSpace=wrap;html=1;" vertex="1" parent="1">
          <mxGeometry x="230" y="98" width="120" height="20" as="geometry" />
        </mxCell>
        <mxCell id="x0C4VEqtYfVwK2n4nYKt-108" value="" style="rounded=0;whiteSpace=wrap;html=1;" vertex="1" parent="1">
          <mxGeometry x="230" y="118" width="120" height="20" as="geometry" />
        </mxCell>
        <mxCell id="x0C4VEqtYfVwK2n4nYKt-109" value="" style="rounded=0;whiteSpace=wrap;html=1;" vertex="1" parent="1">
          <mxGeometry x="230" y="138" width="120" height="20" as="geometry" />
        </mxCell>
        <mxCell id="x0C4VEqtYfVwK2n4nYKt-110" value="" style="rounded=0;whiteSpace=wrap;html=1;" vertex="1" parent="1">
          <mxGeometry x="230" y="158" width="120" height="20" as="geometry" />
        </mxCell>
        <mxCell id="x0C4VEqtYfVwK2n4nYKt-111" value="" style="rounded=0;whiteSpace=wrap;html=1;" vertex="1" parent="1">
          <mxGeometry x="230" y="178" width="120" height="20" as="geometry" />
        </mxCell>
        <mxCell id="x0C4VEqtYfVwK2n4nYKt-112" value="" style="rounded=0;whiteSpace=wrap;html=1;" vertex="1" parent="1">
          <mxGeometry x="230" y="198" width="120" height="20" as="geometry" />
        </mxCell>
        <mxCell id="x0C4VEqtYfVwK2n4nYKt-113" value="" style="rounded=0;whiteSpace=wrap;html=1;" vertex="1" parent="1">
          <mxGeometry x="230" y="218" width="120" height="20" as="geometry" />
        </mxCell>
        <mxCell id="x0C4VEqtYfVwK2n4nYKt-114" value="" style="rounded=0;whiteSpace=wrap;html=1;" vertex="1" parent="1">
          <mxGeometry x="230" y="238" width="120" height="20" as="geometry" />
        </mxCell>
        <mxCell id="x0C4VEqtYfVwK2n4nYKt-115" value="" style="rounded=0;whiteSpace=wrap;html=1;" vertex="1" parent="1">
          <mxGeometry x="230" y="258" width="120" height="20" as="geometry" />
        </mxCell>
        <mxCell id="x0C4VEqtYfVwK2n4nYKt-116" value="" style="rounded=0;whiteSpace=wrap;html=1;" vertex="1" parent="1">
          <mxGeometry x="230" y="278" width="120" height="20" as="geometry" />
        </mxCell>
        <mxCell id="x0C4VEqtYfVwK2n4nYKt-117" value="" style="rounded=0;whiteSpace=wrap;html=1;" vertex="1" parent="1">
          <mxGeometry x="230" y="298" width="120" height="20" as="geometry" />
        </mxCell>
        <mxCell id="x0C4VEqtYfVwK2n4nYKt-118" value="" style="rounded=0;whiteSpace=wrap;html=1;" vertex="1" parent="1">
          <mxGeometry x="230" y="318" width="120" height="20" as="geometry" />
        </mxCell>
        <mxCell id="x0C4VEqtYfVwK2n4nYKt-119" value="" style="rounded=0;whiteSpace=wrap;html=1;" vertex="1" parent="1">
          <mxGeometry x="230" y="338" width="120" height="20" as="geometry" />
        </mxCell>
        <mxCell id="x0C4VEqtYfVwK2n4nYKt-120" value="" style="rounded=0;whiteSpace=wrap;html=1;" vertex="1" parent="1">
          <mxGeometry x="230" y="358" width="120" height="20" as="geometry" />
        </mxCell>
        <mxCell id="x0C4VEqtYfVwK2n4nYKt-121" value="" style="rounded=0;whiteSpace=wrap;html=1;" vertex="1" parent="1">
          <mxGeometry x="230" y="378" width="120" height="20" as="geometry" />
        </mxCell>
        <mxCell id="x0C4VEqtYfVwK2n4nYKt-122" value="0" style="text;html=1;align=center;verticalAlign=middle;resizable=0;points=[];autosize=1;strokeColor=none;fillColor=none;" vertex="1" parent="1">
          <mxGeometry x="195" y="76" width="30" height="30" as="geometry" />
        </mxCell>
        <mxCell id="x0C4VEqtYfVwK2n4nYKt-123" value="1" style="text;html=1;align=center;verticalAlign=middle;resizable=0;points=[];autosize=1;strokeColor=none;fillColor=none;" vertex="1" parent="1">
          <mxGeometry x="195" y="96" width="30" height="30" as="geometry" />
        </mxCell>
        <mxCell id="x0C4VEqtYfVwK2n4nYKt-124" value="2" style="text;html=1;align=center;verticalAlign=middle;resizable=0;points=[];autosize=1;strokeColor=none;fillColor=none;" vertex="1" parent="1">
          <mxGeometry x="195" y="116" width="30" height="30" as="geometry" />
        </mxCell>
        <mxCell id="x0C4VEqtYfVwK2n4nYKt-125" value="15" style="text;html=1;align=center;verticalAlign=middle;resizable=0;points=[];autosize=1;strokeColor=none;fillColor=none;" vertex="1" parent="1">
          <mxGeometry x="190" y="376" width="40" height="30" as="geometry" />
        </mxCell>
        <mxCell id="x0C4VEqtYfVwK2n4nYKt-126" value="14" style="text;html=1;align=center;verticalAlign=middle;resizable=0;points=[];autosize=1;strokeColor=none;fillColor=none;" vertex="1" parent="1">
          <mxGeometry x="190" y="356" width="40" height="30" as="geometry" />
        </mxCell>
        <mxCell id="x0C4VEqtYfVwK2n4nYKt-127" value="..." style="text;html=1;align=center;verticalAlign=middle;resizable=0;points=[];autosize=1;strokeColor=none;fillColor=none;" vertex="1" parent="1">
          <mxGeometry x="195" y="226" width="30" height="30" as="geometry" />
        </mxCell>
        <mxCell id="x0C4VEqtYfVwK2n4nYKt-128" value="" style="rounded=0;whiteSpace=wrap;html=1;" vertex="1" parent="1">
          <mxGeometry x="520" y="78" width="120" height="20" as="geometry" />
        </mxCell>
        <mxCell id="x0C4VEqtYfVwK2n4nYKt-129" value="" style="rounded=0;whiteSpace=wrap;html=1;" vertex="1" parent="1">
          <mxGeometry x="520" y="98" width="120" height="20" as="geometry" />
        </mxCell>
        <mxCell id="x0C4VEqtYfVwK2n4nYKt-130" value="" style="rounded=0;whiteSpace=wrap;html=1;" vertex="1" parent="1">
          <mxGeometry x="520" y="118" width="120" height="20" as="geometry" />
        </mxCell>
        <mxCell id="x0C4VEqtYfVwK2n4nYKt-131" value="" style="rounded=0;whiteSpace=wrap;html=1;" vertex="1" parent="1">
          <mxGeometry x="520" y="138" width="120" height="20" as="geometry" />
        </mxCell>
        <mxCell id="x0C4VEqtYfVwK2n4nYKt-132" value="" style="rounded=0;whiteSpace=wrap;html=1;" vertex="1" parent="1">
          <mxGeometry x="520" y="158" width="120" height="20" as="geometry" />
        </mxCell>
        <mxCell id="x0C4VEqtYfVwK2n4nYKt-133" value="" style="rounded=0;whiteSpace=wrap;html=1;" vertex="1" parent="1">
          <mxGeometry x="520" y="178" width="120" height="20" as="geometry" />
        </mxCell>
        <mxCell id="x0C4VEqtYfVwK2n4nYKt-134" value="" style="rounded=0;whiteSpace=wrap;html=1;" vertex="1" parent="1">
          <mxGeometry x="520" y="198" width="120" height="20" as="geometry" />
        </mxCell>
        <mxCell id="x0C4VEqtYfVwK2n4nYKt-135" value="" style="rounded=0;whiteSpace=wrap;html=1;" vertex="1" parent="1">
          <mxGeometry x="520" y="218" width="120" height="20" as="geometry" />
        </mxCell>
        <mxCell id="x0C4VEqtYfVwK2n4nYKt-136" value="" style="rounded=0;whiteSpace=wrap;html=1;" vertex="1" parent="1">
          <mxGeometry x="520" y="238" width="120" height="20" as="geometry" />
        </mxCell>
        <mxCell id="x0C4VEqtYfVwK2n4nYKt-137" value="" style="rounded=0;whiteSpace=wrap;html=1;" vertex="1" parent="1">
          <mxGeometry x="520" y="258" width="120" height="20" as="geometry" />
        </mxCell>
        <mxCell id="x0C4VEqtYfVwK2n4nYKt-138" value="" style="rounded=0;whiteSpace=wrap;html=1;" vertex="1" parent="1">
          <mxGeometry x="520" y="278" width="120" height="20" as="geometry" />
        </mxCell>
        <mxCell id="x0C4VEqtYfVwK2n4nYKt-139" value="" style="rounded=0;whiteSpace=wrap;html=1;" vertex="1" parent="1">
          <mxGeometry x="520" y="298" width="120" height="20" as="geometry" />
        </mxCell>
        <mxCell id="x0C4VEqtYfVwK2n4nYKt-140" value="" style="rounded=0;whiteSpace=wrap;html=1;" vertex="1" parent="1">
          <mxGeometry x="520" y="318" width="120" height="20" as="geometry" />
        </mxCell>
        <mxCell id="x0C4VEqtYfVwK2n4nYKt-141" value="" style="rounded=0;whiteSpace=wrap;html=1;" vertex="1" parent="1">
          <mxGeometry x="520" y="338" width="120" height="20" as="geometry" />
        </mxCell>
        <mxCell id="x0C4VEqtYfVwK2n4nYKt-142" value="" style="rounded=0;whiteSpace=wrap;html=1;" vertex="1" parent="1">
          <mxGeometry x="520" y="358" width="120" height="20" as="geometry" />
        </mxCell>
        <mxCell id="x0C4VEqtYfVwK2n4nYKt-143" value="" style="rounded=0;whiteSpace=wrap;html=1;" vertex="1" parent="1">
          <mxGeometry x="520" y="378" width="120" height="20" as="geometry" />
        </mxCell>
        <mxCell id="x0C4VEqtYfVwK2n4nYKt-144" value="" style="rounded=0;whiteSpace=wrap;html=1;" vertex="1" parent="1">
          <mxGeometry x="230" y="398" width="120" height="20" as="geometry" />
        </mxCell>
        <mxCell id="x0C4VEqtYfVwK2n4nYKt-145" value="" style="rounded=0;whiteSpace=wrap;html=1;" vertex="1" parent="1">
          <mxGeometry x="230" y="418" width="120" height="20" as="geometry" />
        </mxCell>
        <mxCell id="x0C4VEqtYfVwK2n4nYKt-146" value="" style="rounded=0;whiteSpace=wrap;html=1;" vertex="1" parent="1">
          <mxGeometry x="230" y="438" width="120" height="20" as="geometry" />
        </mxCell>
        <mxCell id="x0C4VEqtYfVwK2n4nYKt-147" value="" style="rounded=0;whiteSpace=wrap;html=1;" vertex="1" parent="1">
          <mxGeometry x="230" y="458" width="120" height="20" as="geometry" />
        </mxCell>
        <mxCell id="x0C4VEqtYfVwK2n4nYKt-148" value="" style="rounded=0;whiteSpace=wrap;html=1;" vertex="1" parent="1">
          <mxGeometry x="230" y="478" width="120" height="20" as="geometry" />
        </mxCell>
        <mxCell id="x0C4VEqtYfVwK2n4nYKt-149" value="" style="rounded=0;whiteSpace=wrap;html=1;" vertex="1" parent="1">
          <mxGeometry x="230" y="498" width="120" height="20" as="geometry" />
        </mxCell>
        <mxCell id="x0C4VEqtYfVwK2n4nYKt-150" value="" style="rounded=0;whiteSpace=wrap;html=1;" vertex="1" parent="1">
          <mxGeometry x="230" y="518" width="120" height="20" as="geometry" />
        </mxCell>
        <mxCell id="x0C4VEqtYfVwK2n4nYKt-151" value="" style="rounded=0;whiteSpace=wrap;html=1;" vertex="1" parent="1">
          <mxGeometry x="230" y="538" width="120" height="20" as="geometry" />
        </mxCell>
        <mxCell id="x0C4VEqtYfVwK2n4nYKt-152" value="" style="rounded=0;whiteSpace=wrap;html=1;" vertex="1" parent="1">
          <mxGeometry x="230" y="558" width="120" height="20" as="geometry" />
        </mxCell>
        <mxCell id="x0C4VEqtYfVwK2n4nYKt-153" value="" style="rounded=0;whiteSpace=wrap;html=1;" vertex="1" parent="1">
          <mxGeometry x="230" y="578" width="120" height="20" as="geometry" />
        </mxCell>
        <mxCell id="x0C4VEqtYfVwK2n4nYKt-154" value="" style="rounded=0;whiteSpace=wrap;html=1;" vertex="1" parent="1">
          <mxGeometry x="230" y="598" width="120" height="20" as="geometry" />
        </mxCell>
        <mxCell id="x0C4VEqtYfVwK2n4nYKt-155" value="" style="rounded=0;whiteSpace=wrap;html=1;" vertex="1" parent="1">
          <mxGeometry x="230" y="618" width="120" height="20" as="geometry" />
        </mxCell>
        <mxCell id="x0C4VEqtYfVwK2n4nYKt-156" value="" style="rounded=0;whiteSpace=wrap;html=1;" vertex="1" parent="1">
          <mxGeometry x="230" y="638" width="120" height="20" as="geometry" />
        </mxCell>
        <mxCell id="x0C4VEqtYfVwK2n4nYKt-157" value="" style="rounded=0;whiteSpace=wrap;html=1;" vertex="1" parent="1">
          <mxGeometry x="230" y="658" width="120" height="20" as="geometry" />
        </mxCell>
        <mxCell id="x0C4VEqtYfVwK2n4nYKt-158" value="" style="rounded=0;whiteSpace=wrap;html=1;" vertex="1" parent="1">
          <mxGeometry x="230" y="678" width="120" height="20" as="geometry" />
        </mxCell>
        <mxCell id="x0C4VEqtYfVwK2n4nYKt-159" value="" style="rounded=0;whiteSpace=wrap;html=1;" vertex="1" parent="1">
          <mxGeometry x="230" y="698" width="120" height="20" as="geometry" />
        </mxCell>
        <mxCell id="x0C4VEqtYfVwK2n4nYKt-160" value="0" style="text;html=1;align=center;verticalAlign=middle;resizable=0;points=[];autosize=1;strokeColor=none;fillColor=none;" vertex="1" parent="1">
          <mxGeometry x="195" y="396" width="30" height="30" as="geometry" />
        </mxCell>
        <mxCell id="x0C4VEqtYfVwK2n4nYKt-161" value="1" style="text;html=1;align=center;verticalAlign=middle;resizable=0;points=[];autosize=1;strokeColor=none;fillColor=none;" vertex="1" parent="1">
          <mxGeometry x="195" y="416" width="30" height="30" as="geometry" />
        </mxCell>
        <mxCell id="x0C4VEqtYfVwK2n4nYKt-162" value="2" style="text;html=1;align=center;verticalAlign=middle;resizable=0;points=[];autosize=1;strokeColor=none;fillColor=none;" vertex="1" parent="1">
          <mxGeometry x="195" y="436" width="30" height="30" as="geometry" />
        </mxCell>
        <mxCell id="x0C4VEqtYfVwK2n4nYKt-163" value="15" style="text;html=1;align=center;verticalAlign=middle;resizable=0;points=[];autosize=1;strokeColor=none;fillColor=none;" vertex="1" parent="1">
          <mxGeometry x="190" y="696" width="40" height="30" as="geometry" />
        </mxCell>
        <mxCell id="x0C4VEqtYfVwK2n4nYKt-164" value="14" style="text;html=1;align=center;verticalAlign=middle;resizable=0;points=[];autosize=1;strokeColor=none;fillColor=none;" vertex="1" parent="1">
          <mxGeometry x="190" y="676" width="40" height="30" as="geometry" />
        </mxCell>
        <mxCell id="x0C4VEqtYfVwK2n4nYKt-165" value="..." style="text;html=1;align=center;verticalAlign=middle;resizable=0;points=[];autosize=1;strokeColor=none;fillColor=none;" vertex="1" parent="1">
          <mxGeometry x="195" y="546" width="30" height="30" as="geometry" />
        </mxCell>
        <mxCell id="x0C4VEqtYfVwK2n4nYKt-166" value="" style="endArrow=classic;html=1;rounded=0;entryX=0;entryY=0.5;entryDx=0;entryDy=0;" edge="1" parent="1" target="x0C4VEqtYfVwK2n4nYKt-128">
          <mxGeometry width="50" height="50" relative="1" as="geometry">
            <mxPoint x="350" y="408" as="sourcePoint" />
            <mxPoint x="400" y="358" as="targetPoint" />
          </mxGeometry>
        </mxCell>
        <mxCell id="x0C4VEqtYfVwK2n4nYKt-167" value="" style="group" vertex="1" connectable="0" parent="1">
          <mxGeometry x="350" y="107.88" width="170" height="277.84" as="geometry" />
        </mxCell>
        <mxCell id="x0C4VEqtYfVwK2n4nYKt-168" value="" style="edgeStyle=orthogonalEdgeStyle;rounded=0;orthogonalLoop=1;jettySize=auto;html=1;entryX=0;entryY=0.5;entryDx=0;entryDy=0;" edge="1" parent="x0C4VEqtYfVwK2n4nYKt-167">
          <mxGeometry relative="1" as="geometry">
            <mxPoint as="sourcePoint" />
            <mxPoint x="170" as="targetPoint" />
          </mxGeometry>
        </mxCell>
        <mxCell id="x0C4VEqtYfVwK2n4nYKt-169" value="" style="edgeStyle=orthogonalEdgeStyle;rounded=0;orthogonalLoop=1;jettySize=auto;html=1;entryX=0;entryY=0.5;entryDx=0;entryDy=0;" edge="1" parent="x0C4VEqtYfVwK2n4nYKt-167">
          <mxGeometry relative="1" as="geometry">
            <mxPoint y="19.999999999999996" as="sourcePoint" />
            <mxPoint x="170" y="19.999999999999996" as="targetPoint" />
          </mxGeometry>
        </mxCell>
        <mxCell id="x0C4VEqtYfVwK2n4nYKt-170" value="" style="edgeStyle=orthogonalEdgeStyle;rounded=0;orthogonalLoop=1;jettySize=auto;html=1;entryX=0;entryY=0.5;entryDx=0;entryDy=0;" edge="1" parent="x0C4VEqtYfVwK2n4nYKt-167">
          <mxGeometry relative="1" as="geometry">
            <mxPoint y="39.99999999999999" as="sourcePoint" />
            <mxPoint x="170" y="39.99999999999999" as="targetPoint" />
          </mxGeometry>
        </mxCell>
        <mxCell id="x0C4VEqtYfVwK2n4nYKt-171" value="" style="edgeStyle=orthogonalEdgeStyle;rounded=0;orthogonalLoop=1;jettySize=auto;html=1;entryX=0;entryY=0.5;entryDx=0;entryDy=0;" edge="1" parent="x0C4VEqtYfVwK2n4nYKt-167">
          <mxGeometry relative="1" as="geometry">
            <mxPoint y="59.999999999999986" as="sourcePoint" />
            <mxPoint x="170" y="59.999999999999986" as="targetPoint" />
          </mxGeometry>
        </mxCell>
        <mxCell id="x0C4VEqtYfVwK2n4nYKt-172" value="" style="edgeStyle=orthogonalEdgeStyle;rounded=0;orthogonalLoop=1;jettySize=auto;html=1;entryX=0;entryY=0.5;entryDx=0;entryDy=0;" edge="1" parent="x0C4VEqtYfVwK2n4nYKt-167">
          <mxGeometry relative="1" as="geometry">
            <mxPoint y="80.11999999999999" as="sourcePoint" />
            <mxPoint x="170" y="80.11999999999999" as="targetPoint" />
          </mxGeometry>
        </mxCell>
        <mxCell id="x0C4VEqtYfVwK2n4nYKt-173" value="" style="edgeStyle=orthogonalEdgeStyle;rounded=0;orthogonalLoop=1;jettySize=auto;html=1;entryX=0;entryY=0.5;entryDx=0;entryDy=0;" edge="1" parent="x0C4VEqtYfVwK2n4nYKt-167">
          <mxGeometry relative="1" as="geometry">
            <mxPoint y="99.99999999999997" as="sourcePoint" />
            <mxPoint x="170" y="99.99999999999997" as="targetPoint" />
          </mxGeometry>
        </mxCell>
        <mxCell id="x0C4VEqtYfVwK2n4nYKt-174" value="" style="edgeStyle=orthogonalEdgeStyle;rounded=0;orthogonalLoop=1;jettySize=auto;html=1;entryX=0;entryY=0.5;entryDx=0;entryDy=0;" edge="1" parent="x0C4VEqtYfVwK2n4nYKt-167">
          <mxGeometry relative="1" as="geometry">
            <mxPoint y="119.99999999999997" as="sourcePoint" />
            <mxPoint x="170" y="119.99999999999997" as="targetPoint" />
          </mxGeometry>
        </mxCell>
        <mxCell id="x0C4VEqtYfVwK2n4nYKt-175" value="" style="edgeStyle=orthogonalEdgeStyle;rounded=0;orthogonalLoop=1;jettySize=auto;html=1;entryX=0;entryY=0.5;entryDx=0;entryDy=0;" edge="1" parent="x0C4VEqtYfVwK2n4nYKt-167">
          <mxGeometry relative="1" as="geometry">
            <mxPoint y="139.99999999999997" as="sourcePoint" />
            <mxPoint x="170" y="139.99999999999997" as="targetPoint" />
          </mxGeometry>
        </mxCell>
        <mxCell id="x0C4VEqtYfVwK2n4nYKt-176" value="" style="edgeStyle=orthogonalEdgeStyle;rounded=0;orthogonalLoop=1;jettySize=auto;html=1;entryX=0;entryY=0.5;entryDx=0;entryDy=0;" edge="1" parent="x0C4VEqtYfVwK2n4nYKt-167">
          <mxGeometry relative="1" as="geometry">
            <mxPoint y="160.11999999999998" as="sourcePoint" />
            <mxPoint x="170" y="160.11999999999998" as="targetPoint" />
          </mxGeometry>
        </mxCell>
        <mxCell id="x0C4VEqtYfVwK2n4nYKt-177" value="" style="edgeStyle=orthogonalEdgeStyle;rounded=0;orthogonalLoop=1;jettySize=auto;html=1;entryX=0;entryY=0.5;entryDx=0;entryDy=0;" edge="1" parent="x0C4VEqtYfVwK2n4nYKt-167">
          <mxGeometry relative="1" as="geometry">
            <mxPoint y="179.99999999999997" as="sourcePoint" />
            <mxPoint x="170" y="179.99999999999997" as="targetPoint" />
          </mxGeometry>
        </mxCell>
        <mxCell id="x0C4VEqtYfVwK2n4nYKt-178" value="" style="edgeStyle=orthogonalEdgeStyle;rounded=0;orthogonalLoop=1;jettySize=auto;html=1;entryX=0;entryY=0.5;entryDx=0;entryDy=0;" edge="1" parent="x0C4VEqtYfVwK2n4nYKt-167">
          <mxGeometry relative="1" as="geometry">
            <mxPoint y="199.99999999999994" as="sourcePoint" />
            <mxPoint x="170" y="199.99999999999994" as="targetPoint" />
          </mxGeometry>
        </mxCell>
        <mxCell id="x0C4VEqtYfVwK2n4nYKt-179" value="" style="edgeStyle=orthogonalEdgeStyle;rounded=0;orthogonalLoop=1;jettySize=auto;html=1;entryX=0;entryY=0.5;entryDx=0;entryDy=0;" edge="1" parent="x0C4VEqtYfVwK2n4nYKt-167">
          <mxGeometry relative="1" as="geometry">
            <mxPoint y="219.99999999999994" as="sourcePoint" />
            <mxPoint x="170" y="219.99999999999994" as="targetPoint" />
          </mxGeometry>
        </mxCell>
        <mxCell id="x0C4VEqtYfVwK2n4nYKt-180" value="" style="edgeStyle=orthogonalEdgeStyle;rounded=0;orthogonalLoop=1;jettySize=auto;html=1;entryX=0;entryY=0.5;entryDx=0;entryDy=0;" edge="1" parent="x0C4VEqtYfVwK2n4nYKt-167">
          <mxGeometry relative="1" as="geometry">
            <mxPoint y="237.95999999999998" as="sourcePoint" />
            <mxPoint x="170" y="237.95999999999998" as="targetPoint" />
          </mxGeometry>
        </mxCell>
        <mxCell id="x0C4VEqtYfVwK2n4nYKt-181" value="" style="edgeStyle=orthogonalEdgeStyle;rounded=0;orthogonalLoop=1;jettySize=auto;html=1;entryX=0;entryY=0.5;entryDx=0;entryDy=0;" edge="1" parent="x0C4VEqtYfVwK2n4nYKt-167">
          <mxGeometry relative="1" as="geometry">
            <mxPoint y="257.84" as="sourcePoint" />
            <mxPoint x="170" y="257.84" as="targetPoint" />
          </mxGeometry>
        </mxCell>
        <mxCell id="x0C4VEqtYfVwK2n4nYKt-182" value="" style="edgeStyle=orthogonalEdgeStyle;rounded=0;orthogonalLoop=1;jettySize=auto;html=1;entryX=0;entryY=0.5;entryDx=0;entryDy=0;" edge="1" parent="x0C4VEqtYfVwK2n4nYKt-167">
          <mxGeometry relative="1" as="geometry">
            <mxPoint y="277.84" as="sourcePoint" />
            <mxPoint x="170" y="277.84" as="targetPoint" />
          </mxGeometry>
        </mxCell>
        <mxCell id="x0C4VEqtYfVwK2n4nYKt-183" value="" style="endArrow=classic;html=1;rounded=0;entryX=0;entryY=0.5;entryDx=0;entryDy=0;" edge="1" parent="1">
          <mxGeometry width="50" height="50" relative="1" as="geometry">
            <mxPoint x="350" y="428" as="sourcePoint" />
            <mxPoint x="520" y="108" as="targetPoint" />
          </mxGeometry>
        </mxCell>
        <mxCell id="x0C4VEqtYfVwK2n4nYKt-184" value="" style="endArrow=classic;html=1;rounded=0;entryX=0;entryY=0.5;entryDx=0;entryDy=0;" edge="1" parent="1">
          <mxGeometry width="50" height="50" relative="1" as="geometry">
            <mxPoint x="350" y="448" as="sourcePoint" />
            <mxPoint x="520" y="128" as="targetPoint" />
          </mxGeometry>
        </mxCell>
        <mxCell id="x0C4VEqtYfVwK2n4nYKt-185" value="" style="endArrow=classic;html=1;rounded=0;entryX=0;entryY=0.5;entryDx=0;entryDy=0;" edge="1" parent="1">
          <mxGeometry width="50" height="50" relative="1" as="geometry">
            <mxPoint x="350" y="468" as="sourcePoint" />
            <mxPoint x="520" y="148" as="targetPoint" />
          </mxGeometry>
        </mxCell>
        <mxCell id="x0C4VEqtYfVwK2n4nYKt-186" value="" style="endArrow=classic;html=1;rounded=0;entryX=0;entryY=0.5;entryDx=0;entryDy=0;" edge="1" parent="1">
          <mxGeometry width="50" height="50" relative="1" as="geometry">
            <mxPoint x="350" y="546" as="sourcePoint" />
            <mxPoint x="520" y="226" as="targetPoint" />
          </mxGeometry>
        </mxCell>
        <mxCell id="x0C4VEqtYfVwK2n4nYKt-187" value="" style="endArrow=classic;html=1;rounded=0;entryX=0;entryY=0.5;entryDx=0;entryDy=0;" edge="1" parent="1">
          <mxGeometry width="50" height="50" relative="1" as="geometry">
            <mxPoint x="350" y="526" as="sourcePoint" />
            <mxPoint x="520" y="206" as="targetPoint" />
          </mxGeometry>
        </mxCell>
        <mxCell id="x0C4VEqtYfVwK2n4nYKt-188" value="" style="endArrow=classic;html=1;rounded=0;entryX=0;entryY=0.5;entryDx=0;entryDy=0;" edge="1" parent="1">
          <mxGeometry width="50" height="50" relative="1" as="geometry">
            <mxPoint x="350" y="506" as="sourcePoint" />
            <mxPoint x="520" y="186" as="targetPoint" />
          </mxGeometry>
        </mxCell>
        <mxCell id="x0C4VEqtYfVwK2n4nYKt-189" value="" style="endArrow=classic;html=1;rounded=0;entryX=0;entryY=0.5;entryDx=0;entryDy=0;" edge="1" parent="1">
          <mxGeometry width="50" height="50" relative="1" as="geometry">
            <mxPoint x="350" y="486" as="sourcePoint" />
            <mxPoint x="520" y="166" as="targetPoint" />
          </mxGeometry>
        </mxCell>
        <mxCell id="x0C4VEqtYfVwK2n4nYKt-190" value="" style="endArrow=classic;html=1;rounded=0;entryX=0;entryY=0.5;entryDx=0;entryDy=0;" edge="1" parent="1">
          <mxGeometry width="50" height="50" relative="1" as="geometry">
            <mxPoint x="350" y="628" as="sourcePoint" />
            <mxPoint x="520" y="308" as="targetPoint" />
          </mxGeometry>
        </mxCell>
        <mxCell id="x0C4VEqtYfVwK2n4nYKt-191" value="" style="endArrow=classic;html=1;rounded=0;entryX=0;entryY=0.5;entryDx=0;entryDy=0;" edge="1" parent="1">
          <mxGeometry width="50" height="50" relative="1" as="geometry">
            <mxPoint x="350" y="608" as="sourcePoint" />
            <mxPoint x="520" y="288" as="targetPoint" />
          </mxGeometry>
        </mxCell>
        <mxCell id="x0C4VEqtYfVwK2n4nYKt-192" value="" style="endArrow=classic;html=1;rounded=0;entryX=0;entryY=0.5;entryDx=0;entryDy=0;" edge="1" parent="1">
          <mxGeometry width="50" height="50" relative="1" as="geometry">
            <mxPoint x="350" y="588" as="sourcePoint" />
            <mxPoint x="520" y="268" as="targetPoint" />
          </mxGeometry>
        </mxCell>
        <mxCell id="x0C4VEqtYfVwK2n4nYKt-193" value="" style="endArrow=classic;html=1;rounded=0;entryX=0;entryY=0.5;entryDx=0;entryDy=0;" edge="1" parent="1">
          <mxGeometry width="50" height="50" relative="1" as="geometry">
            <mxPoint x="350" y="568" as="sourcePoint" />
            <mxPoint x="520" y="248" as="targetPoint" />
          </mxGeometry>
        </mxCell>
        <mxCell id="x0C4VEqtYfVwK2n4nYKt-194" value="" style="endArrow=classic;html=1;rounded=0;entryX=0;entryY=0.5;entryDx=0;entryDy=0;" edge="1" parent="1">
          <mxGeometry width="50" height="50" relative="1" as="geometry">
            <mxPoint x="350" y="708" as="sourcePoint" />
            <mxPoint x="520" y="388" as="targetPoint" />
          </mxGeometry>
        </mxCell>
        <mxCell id="x0C4VEqtYfVwK2n4nYKt-195" value="" style="endArrow=classic;html=1;rounded=0;entryX=0;entryY=0.5;entryDx=0;entryDy=0;" edge="1" parent="1">
          <mxGeometry width="50" height="50" relative="1" as="geometry">
            <mxPoint x="350" y="688" as="sourcePoint" />
            <mxPoint x="520" y="368" as="targetPoint" />
          </mxGeometry>
        </mxCell>
        <mxCell id="x0C4VEqtYfVwK2n4nYKt-196" value="" style="endArrow=classic;html=1;rounded=0;entryX=0;entryY=0.5;entryDx=0;entryDy=0;" edge="1" parent="1">
          <mxGeometry width="50" height="50" relative="1" as="geometry">
            <mxPoint x="350" y="668" as="sourcePoint" />
            <mxPoint x="520" y="348" as="targetPoint" />
          </mxGeometry>
        </mxCell>
        <mxCell id="x0C4VEqtYfVwK2n4nYKt-197" value="" style="endArrow=classic;html=1;rounded=0;entryX=0;entryY=0.5;entryDx=0;entryDy=0;" edge="1" parent="1">
          <mxGeometry width="50" height="50" relative="1" as="geometry">
            <mxPoint x="350" y="648" as="sourcePoint" />
            <mxPoint x="520" y="328" as="targetPoint" />
          </mxGeometry>
        </mxCell>
        <mxCell id="x0C4VEqtYfVwK2n4nYKt-198" value="CMD ID" style="text;html=1;align=center;verticalAlign=middle;resizable=0;points=[];autosize=1;strokeColor=none;fillColor=none;" vertex="1" parent="1">
          <mxGeometry x="170" y="38" width="70" height="30" as="geometry" />
        </mxCell>
        <mxCell id="x0C4VEqtYfVwK2n4nYKt-199" value="0" style="text;html=1;align=center;verticalAlign=middle;resizable=0;points=[];autosize=1;strokeColor=none;fillColor=none;" vertex="1" parent="1">
          <mxGeometry x="645" y="68" width="30" height="30" as="geometry" />
        </mxCell>
        <mxCell id="x0C4VEqtYfVwK2n4nYKt-200" value="1" style="text;html=1;align=center;verticalAlign=middle;resizable=0;points=[];autosize=1;strokeColor=none;fillColor=none;" vertex="1" parent="1">
          <mxGeometry x="645" y="88" width="30" height="30" as="geometry" />
        </mxCell>
        <mxCell id="x0C4VEqtYfVwK2n4nYKt-201" value="2" style="text;html=1;align=center;verticalAlign=middle;resizable=0;points=[];autosize=1;strokeColor=none;fillColor=none;" vertex="1" parent="1">
          <mxGeometry x="645" y="108" width="30" height="30" as="geometry" />
        </mxCell>
        <mxCell id="x0C4VEqtYfVwK2n4nYKt-202" value="15" style="text;html=1;align=center;verticalAlign=middle;resizable=0;points=[];autosize=1;strokeColor=none;fillColor=none;" vertex="1" parent="1">
          <mxGeometry x="640" y="368" width="40" height="30" as="geometry" />
        </mxCell>
        <mxCell id="x0C4VEqtYfVwK2n4nYKt-203" value="14" style="text;html=1;align=center;verticalAlign=middle;resizable=0;points=[];autosize=1;strokeColor=none;fillColor=none;" vertex="1" parent="1">
          <mxGeometry x="640" y="348" width="40" height="30" as="geometry" />
        </mxCell>
        <mxCell id="x0C4VEqtYfVwK2n4nYKt-204" value="..." style="text;html=1;align=center;verticalAlign=middle;resizable=0;points=[];autosize=1;strokeColor=none;fillColor=none;" vertex="1" parent="1">
          <mxGeometry x="645" y="218" width="30" height="30" as="geometry" />
        </mxCell>
        <mxCell id="x0C4VEqtYfVwK2n4nYKt-205" value="Scoreboard entry" style="text;html=1;align=center;verticalAlign=middle;resizable=0;points=[];autosize=1;strokeColor=none;fillColor=none;" vertex="1" parent="1">
          <mxGeometry x="595" y="30" width="120" height="30" as="geometry" />
        </mxCell>
      </root>
    </mxGraphModel>
  </diagram>
</mxfile>
